<svg width="22" height="22" viewBox="0 0 22 22" fill="none" xmlns="http://www.w3.org/2000/svg">
<path d="M17.1396 9.72093C16.72 9.72093 16.3721 9.37302 16.3721 8.95349V6.90698C16.3721 3.68372 15.4614 1.53488 11 1.53488C6.53863 1.53488 5.62793 3.68372 5.62793 6.90698V8.95349C5.62793 9.37302 5.28003 9.72093 4.86049 9.72093C4.44096 9.72093 4.09305 9.37302 4.09305 8.95349V6.90698C4.09305 3.93954 4.80933 0 11 0C17.1907 0 17.907 3.93954 17.907 6.90698V8.95349C17.907 9.37302 17.5591 9.72093 17.1396 9.72093Z" fill="#FFABAB"/>
<path d="M11 18.4186C9.16834 18.4186 7.67439 16.9246 7.67439 15.093C7.67439 13.2614 9.16834 11.7674 11 11.7674C12.8316 11.7674 14.3255 13.2614 14.3255 15.093C14.3255 16.9246 12.8316 18.4186 11 18.4186ZM11 13.3023C10.0176 13.3023 9.20927 14.1107 9.20927 15.093C9.20927 16.0753 10.0176 16.8837 11 16.8837C11.9823 16.8837 12.7907 16.0753 12.7907 15.093C12.7907 14.1107 11.9823 13.3023 11 13.3023Z" fill="#FFABAB"/>
<path d="M16.1163 22H5.88372C1.37116 22 0 20.6288 0 16.1163V14.0698C0 9.5572 1.37116 8.18604 5.88372 8.18604H16.1163C20.6288 8.18604 22 9.5572 22 14.0698V16.1163C22 20.6288 20.6288 22 16.1163 22ZM5.88372 9.72092C2.22047 9.72092 1.53488 10.4167 1.53488 14.0698V16.1163C1.53488 19.7693 2.22047 20.4651 5.88372 20.4651H16.1163C19.7795 20.4651 20.4651 19.7693 20.4651 16.1163V14.0698C20.4651 10.4167 19.7795 9.72092 16.1163 9.72092H5.88372Z" fill="#FFABAB"/>
</svg>
