<svg width="32" height="33" viewBox="0 0 32 33" fill="none" xmlns="http://www.w3.org/2000/svg">
<path d="M5.13957 32.11C3.29281 32.11 2.1221 31.4845 1.38009 30.7438C-0.0709359 29.2952 -1.09325 26.217 2.17156 19.6821L3.6061 16.8344C3.78748 16.4558 3.78748 15.6657 3.6061 15.2871L2.17156 12.4394C-1.10974 5.90445 -0.0709359 2.80982 1.38009 1.37773C2.81463 -0.0708147 5.91455 -1.10784 12.4442 2.16785L26.5586 9.21306C30.0708 10.9579 32 13.3941 32 16.0607C32 18.7274 30.0708 21.1636 26.5751 22.9084L12.4607 29.9536C9.26181 31.5503 6.8874 32.11 5.13957 32.11ZM5.13957 2.48061C4.24917 2.48061 3.55663 2.6946 3.12792 3.12258C1.92423 4.30775 2.40241 7.38592 4.38108 11.32L5.81562 14.1842C6.34327 15.2542 6.34327 16.8673 5.81562 17.9373L4.38108 20.785C2.40241 24.7356 1.92423 27.7973 3.12792 28.9825C4.31513 30.1841 7.39856 29.7067 11.3559 27.7314L25.4704 20.6862C28.0591 19.4023 29.5267 17.7068 29.5267 16.0443C29.5267 14.3817 28.0427 12.6863 25.4539 11.4023L11.3394 4.37359C8.8331 3.12258 6.67305 2.48061 5.13957 2.48061Z" fill="#FAFAFA"/>
<path d="M14.0923 17.2955H5.18821C4.51216 17.2955 3.95154 16.7358 3.95154 16.0609C3.95154 15.386 4.51216 14.8264 5.18821 14.8264H14.0923C14.7684 14.8264 15.329 15.386 15.329 16.0609C15.329 16.7358 14.7684 17.2955 14.0923 17.2955Z" fill="#FAFAFA"/>
</svg>
