<svg width="35" height="35" viewBox="0 0 35 35" fill="none" xmlns="http://www.w3.org/2000/svg">
<path d="M17.5 35C27.165 35 35 27.165 35 17.5C35 7.83502 27.165 0 17.5 0C7.83502 0 0 7.83502 0 17.5C0 27.165 7.83502 35 17.5 35Z" fill="#FAFAFA"/>
<path d="M33.25 17.5C33.25 26.1985 26.1985 33.25 17.5 33.25C8.80152 33.25 1.75 26.1985 1.75 17.5C1.75 8.80151 8.80151 1.75 17.5 1.75C26.1985 1.75 33.25 8.80152 33.25 17.5Z" stroke="#363636" stroke-opacity="0.3" stroke-width="3.5"/>
<path d="M10.7917 16.0416C12.4025 16.0416 13.7083 14.7358 13.7083 13.125C13.7083 11.5141 12.4025 10.2083 10.7917 10.2083C9.18084 10.2083 7.875 11.5141 7.875 13.125C7.875 14.7358 9.18084 16.0416 10.7917 16.0416Z" fill="#EEEEEE"/>
<path d="M11.9583 13.125C11.9583 13.7693 11.436 14.2916 10.7917 14.2916C10.1473 14.2916 9.625 13.7693 9.625 13.125C9.625 12.4806 10.1473 11.9583 10.7917 11.9583C11.436 11.9583 11.9583 12.4806 11.9583 13.125Z" stroke="#363636" stroke-opacity="0.3" stroke-width="3.5"/>
<path d="M24.2084 16.0416C25.8192 16.0416 27.125 14.7358 27.125 13.125C27.125 11.5141 25.8192 10.2083 24.2084 10.2083C22.5975 10.2083 21.2917 11.5141 21.2917 13.125C21.2917 14.7358 22.5975 16.0416 24.2084 16.0416Z" fill="#EEEEEE"/>
<path d="M25.375 13.125C25.375 13.7693 24.8527 14.2916 24.2084 14.2916C23.564 14.2916 23.0417 13.7693 23.0417 13.125C23.0417 12.4806 23.564 11.9583 24.2084 11.9583C24.8527 11.9583 25.375 12.4806 25.375 13.125Z" stroke="#363636" stroke-opacity="0.3" stroke-width="3.5"/>
<path d="M27.4167 20.9999C27.4167 20.5333 27.1251 19.9499 26.3667 19.7749C24.3251 19.3666 21.3501 19.0166 17.5001 19.0166C13.6501 19.0166 10.6751 19.4249 8.6334 19.7749C7.87507 19.9499 7.5834 20.5333 7.5834 20.9999C7.5834 25.2583 10.8501 29.5166 17.5001 29.5166C24.1501 29.5166 27.4167 25.2583 27.4167 20.9999Z" fill="#EEEEEE"/>
<path d="M25.6533 21.4197C25.5551 22.9574 24.9157 24.4537 23.7343 25.5984C22.4582 26.835 20.4378 27.7666 17.5001 27.7666C14.5624 27.7666 12.5419 26.835 11.2658 25.5984C10.087 24.4561 9.44782 22.9638 9.34743 21.4296C11.3031 21.1087 14.0326 20.7666 17.5001 20.7666C21.0137 20.7666 23.7462 21.0664 25.6533 21.4197Z" stroke="#363636" stroke-opacity="0.3" stroke-width="3.5"/>
<path d="M24.9083 21.1749C23.625 20.9416 20.9416 20.5916 17.5 20.5916C14.0583 20.5916 11.375 20.9416 10.0916 21.1749C9.33331 21.2916 9.27498 21.5832 9.33331 22.0499C9.39164 22.2832 9.39164 22.6332 9.50831 22.9832C9.56664 23.3332 9.68331 23.5082 10.2666 23.4499C11.375 23.3332 23.6833 23.3332 24.7916 23.4499C25.375 23.5082 25.4333 23.3332 25.55 22.9832C25.6083 22.6332 25.6666 22.3416 25.725 22.0499C25.725 21.5832 25.6666 21.2916 24.9083 21.1749Z" fill="white"/>
<path d="M10.0903 21.7088C10.091 21.7087 10.0918 21.7086 10.0925 21.7086L10.0928 21.7118M10.0903 21.7088C10.088 21.709 10.0857 21.7093 10.0834 21.7095L10.0836 21.7114M10.0903 21.7088C10.0761 21.7102 10.067 21.7107 10.0625 21.711M10.0903 21.7088L10.0991 21.8584M10.0928 21.7118C10.0895 21.7116 10.0865 21.7115 10.0836 21.7114M10.0928 21.7118L10.1073 21.8564L10.1932 21.8349L10.2108 21.8305L10.4027 21.7825C10.3186 21.7508 10.2456 21.7333 10.1914 21.7237C10.186 21.7228 10.1807 21.7219 10.1757 21.7211C10.1711 21.7204 10.1667 21.7197 10.1625 21.7191C10.1338 21.7149 10.1102 21.7128 10.0928 21.7118ZM10.0836 21.7114L10.0991 21.8584M10.0836 21.7114C10.0736 21.7109 10.0664 21.7109 10.0625 21.711M10.0991 21.8584L9.33331 22.0499M10.0991 21.8584L17.5 20.5916C14.0583 20.5916 11.375 20.9416 10.0916 21.1749C9.33331 21.2916 9.27498 21.5832 9.33331 22.0499M10.0625 21.711C10.0603 21.711 10.0592 21.711 10.0591 21.7111L10.0625 21.711ZM9.33331 22.0499L10.1091 21.9529L9.50831 22.9832C9.43668 22.7683 9.40902 22.5534 9.38485 22.3655C9.36965 22.2474 9.35583 22.14 9.33331 22.0499ZM24.9999 21.7111C24.9999 21.7112 24.9984 21.7111 24.9952 21.711L24.9999 21.7111ZM10.1168 21.9519L10.2094 21.9404L10.2303 21.9378L10.6212 21.8889C10.6554 21.9096 10.6903 21.9327 10.7255 21.9585L10.1168 21.9519Z" stroke="#363636" stroke-opacity="0.3" stroke-width="3.5"/>
</svg>
